# xmcd
#
# Track frame offsets:
# 150
# 14087
# 31690
# 48667
# 73370
# 87715
# 105025
# 129025
# 145622
# 158209
# 181185
#
# Disc length: 2690 seconds
# Revision: 2
# Processed by: cddbd v1.4PL0 Copyright (c) Steve Scherf et al.
# Submitted via: MusicBox 0.2
#
DISCID=8b0a800b
DTITLE=Jerry Douglas - Restless on the Farm
DYEAR=1998
DGENRE=Bluegrass
TTITLE0=Things in Life
TTITLE1=Turkish Taffee
TTITLE2=Passing the Bar
TTITLE3=Don't Take Your Guns to Town
TTITLE4=A Tribute to Peador O'Donnell
TTITLE5=Takarasaka
TTITLE6=Follow On
TTITLE7=Like It Is
TTITLE8=The Ride
TTITLE9=TV Doctor
TTITLE10=For Those Who've Gone Clear
EXTD=
EXTT0=
EXTT1=
EXTT2=
EXTT3=
EXTT4=
EXTT5=
EXTT6=
EXTT7=
EXTT8=
EXTT9=
EXTT10=
PLAYORDER=
